<svg id="visual" viewBox="0 0 900 600" width="900" height="600" xmlns="http://www.w3.org/2000/svg" xmlns:xlink="http://www.w3.org/1999/xlink" version="1.1"><rect x="0" y="0" width="900" height="600" fill="#fc9389"></rect><path d="M394 0L395 0L395 40L637 40L637 80L496 80L496 120L584 120L584 160L382 160L382 200L434 200L434 240L461 240L461 280L570 280L570 320L475 320L475 360L564 360L564 400L656 400L656 440L495 440L495 480L596 480L596 520L449 520L449 560L532 560L532 600L0 600L0 560L0 560L0 520L0 520L0 480L0 480L0 440L0 440L0 400L0 400L0 360L0 360L0 320L0 320L0 280L0 280L0 240L0 240L0 200L0 200L0 160L0 160L0 120L0 120L0 80L0 80L0 40L0 40L0 0L0 0Z" fill="#8e4038"></path><path d="M534 0L359 0L359 40L401 40L401 80L398 80L398 120L461 120L461 160L506 160L506 200L534 200L534 240L434 240L434 280L332 280L332 320L298 320L298 360L304 360L304 400L551 400L551 440L437 440L437 480L480 480L480 520L529 520L529 560L367 560L367 600L0 600L0 560L0 560L0 520L0 520L0 480L0 480L0 440L0 440L0 400L0 400L0 360L0 360L0 320L0 320L0 280L0 280L0 240L0 240L0 200L0 200L0 160L0 160L0 120L0 120L0 80L0 80L0 40L0 40L0 0L0 0Z" fill="#a74c42"></path><path d="M330 0L311 0L311 40L236 40L236 80L327 80L327 120L271 120L271 160L231 160L231 200L437 200L437 240L271 240L271 280L458 280L458 320L311 320L311 360L364 360L364 400L366 400L366 440L419 440L419 480L454 480L454 520L373 520L373 560L441 560L441 600L0 600L0 560L0 560L0 520L0 520L0 480L0 480L0 440L0 440L0 400L0 400L0 360L0 360L0 320L0 320L0 280L0 280L0 240L0 240L0 200L0 200L0 160L0 160L0 120L0 120L0 80L0 80L0 40L0 40L0 0L0 0Z" fill="#c1584d"></path><path d="M190 0L232 0L232 40L244 40L244 80L304 80L304 120L231 120L231 160L225 160L225 200L305 200L305 240L324 240L324 280L166 280L166 320L149 320L149 360L300 360L300 400L238 400L238 440L252 440L252 480L189 480L189 520L281 520L281 560L247 560L247 600L0 600L0 560L0 560L0 520L0 520L0 480L0 480L0 440L0 440L0 400L0 400L0 360L0 360L0 320L0 320L0 280L0 280L0 240L0 240L0 200L0 200L0 160L0 160L0 120L0 120L0 80L0 80L0 40L0 40L0 0L0 0Z" fill="#ce7267"></path><path d="M107 0L126 0L126 40L76 40L76 80L121 80L121 120L144 120L144 160L116 160L116 200L86 200L86 240L124 240L124 280L159 280L159 320L226 320L226 360L216 360L216 400L121 400L121 440L145 440L145 480L118 480L118 520L216 520L216 560L226 560L226 600L0 600L0 560L0 560L0 520L0 520L0 480L0 480L0 440L0 440L0 400L0 400L0 360L0 360L0 320L0 320L0 280L0 280L0 240L0 240L0 200L0 200L0 160L0 160L0 120L0 120L0 80L0 80L0 40L0 40L0 0L0 0Z" fill="#d98b81"></path></svg>